<?xml version="1.0" encoding="UTF-8"?>
<!DOCTYPE svg PUBLIC "-//W3C//DTD SVG 1.1//EN" "http://www.w3.org/Graphics/SVG/1.1/DTD/svg11.dtd">
<svg xmlns="http://www.w3.org/2000/svg" version="1.1" width="50px" height="50px" style="shape-rendering:geometricPrecision; text-rendering:geometricPrecision; image-rendering:optimizeQuality; fill-rule:evenodd; clip-rule:evenodd" xmlns:xlink="http://www.w3.org/1999/xlink">
<g><path fill="#ffffff" fill-opacity="0.992" stroke="#ffffff" stroke-width="0.5" stroke-opacity="0.992" d="M 3.02,19 c 0.18,-0.91 0.7,-1.52 1.56,-1.84 c 3.63,-0.09 7.25,-0.22 10.88,-0.37 c 6.33,-2.17 3.26,-10.49 -2.77,-8.35 c -1.09,0.82 -2.19,1.62 -3.29,2.41 c -2.01,-0.07 -2.66,-1.05 -1.95,-2.96 c 5.6,-7.78 16.74,-3.02 15.34,6.47 c -2.67,8.33 -10.37,6.51 -17.3,6.61 c -1.35,0.01 -2.18,-0.65 -2.47,-1.97 Z M 3.02,25 c 0.29,-1.32 1.11,-1.98 2.47,-1.98 c 10.34,-0.02 20.68,-0.03 31.02,-0.03 c 11.39,-0.87 5.66,-16.38 -2.93,-10.84 c -0.95,1.06 -2.01,1.98 -3.16,2.76 c -2.01,-0.03 -2.69,-1.01 -2.05,-2.94 c 8.99,-13.41 27.04,3.19 14.26,13.13 c -6.2,3.85 -28.93,1.05 -37.14,1.87 c -1.35,0.01 -2.18,-0.65 -2.47,-1.97 Z M 3.02,31 c 0.29,-1.32 1.11,-1.98 2.47,-1.98 c 6.99,-0.13 13.98,-0.03 20.95,0.28 c 16.39,6.49 -1.84,25.62 -9.25,12.09 c -0.1,-1.57 0.64,-2.31 2.21,-2.24 c 1.26,1.08 2.63,1.98 4.13,2.69 c 6.72,0.7 7.36,-8.05 0.97,-8.8 c -6.34,-0.03 -12.67,-0.05 -19.01,-0.07 c -1.35,0.01 -2.18,-0.65 -2.47,-1.97 Z"/></g>
</svg>
